<svg width="200" height="200" viewBox="0 0 200 200" fill="none" xmlns="http://www.w3.org/2000/svg">
<path d="M200 172.222C200 187.567 187.567 200 172.222 200H27.7778C12.4392 200 0 187.567 0 172.222V27.7778C0 12.4327 12.4392 0 27.7778 0H172.222C187.567 0 200 12.4327 200 27.7778V172.222Z" fill="#23ACFF"/>
<path d="M150.167 108.889C146.556 103.889 141.332 100.445 134.612 98.6111C134.612 98.6111 140.278 96.556 145.388 88.8889C148.444 83.9996 150 78.112 150 71.2218C150 59.2774 145.666 50.1107 137.001 43.8325C128.333 37.5565 118.555 33.3334 101.944 33.3334H50V166.667H107.945C123.668 166.556 135.499 163.166 143.555 156.667C151.556 150.056 155.556 140.278 155.556 127.222C155.556 120 153.778 113.889 150.167 108.889ZM83.3333 55.5556C83.3333 55.5556 106.5 55.5556 106.944 55.5556C115.388 55.5556 122.222 62.3894 122.222 70.8334C122.222 79.2774 115.388 86.1111 106.944 86.1111C106.5 86.1111 83.3333 86.1111 83.3333 86.1111V55.5556ZM111.111 144.444H83.3333V111.111H111.111C120.334 111.111 127.778 118.555 127.778 127.778C127.778 137.001 120.334 144.444 111.111 144.444Z" fill="white"/>
</svg>
