<svg width="223" height="200" viewBox="0 0 223 200" fill="none" xmlns="http://www.w3.org/2000/svg">
<path d="M130.609 99.9589C130.609 110.713 121.911 119.411 111.157 119.411C100.403 119.411 91.7043 110.713 91.7043 99.9589C91.7043 89.2051 100.403 80.5065 111.157 80.5065C121.911 80.5065 130.609 89.2051 130.609 99.9589Z" fill="white"/>
<path d="M111.157 122.19C98.8959 122.19 88.9254 112.22 88.9254 99.9589C88.9254 87.698 98.8959 77.7275 111.157 77.7275C123.418 77.7275 133.388 87.698 133.388 99.9589C133.388 112.22 123.418 122.19 111.157 122.19ZM111.157 83.2854C101.964 83.2854 94.4833 90.7664 94.4833 99.9589C94.4833 109.151 101.964 116.632 111.157 116.632C120.349 116.632 127.83 109.151 127.83 99.9589C127.83 90.7664 120.349 83.2854 111.157 83.2854Z" fill="#23ACFF"/>
<path d="M219.535 99.9589C219.535 84.4198 203.35 70.8798 177.896 62.2373C181.096 47.3929 181.536 34.1423 178.819 23.9946C176.55 15.5348 172.253 9.44868 166.057 5.91533C162.328 3.79134 158.065 2.70763 153.391 2.70763C141.124 2.70763 126.197 10.4944 111.168 23.7775C96.1278 10.489 81.1947 2.69678 68.9176 2.69678C64.2372 2.69678 59.9802 3.77506 56.2514 5.90447C50.0531 9.44325 45.7527 15.5348 43.4894 24C40.772 34.1478 41.2116 47.3983 44.4066 62.2373C18.964 70.8798 2.77893 84.4252 2.77893 99.9589C2.77893 115.493 18.964 129.038 44.4121 137.675C41.2116 152.514 40.772 165.763 43.4948 175.912C45.7581 184.383 50.0604 190.469 56.2623 194.013C59.991 196.137 64.2535 197.221 68.9284 197.221C68.9338 197.221 68.9284 197.221 68.9338 197.221C81.2056 197.221 96.1332 189.434 111.162 176.14C126.191 189.418 141.119 197.199 153.385 197.205C153.391 197.205 153.391 197.205 153.391 197.205C158.071 197.205 162.328 196.127 166.062 193.997C172.253 190.462 176.55 184.378 178.811 175.918C181.531 165.77 181.091 152.52 177.896 137.681C203.344 129.044 219.535 115.498 219.535 99.9589ZM160.555 15.5746C164.079 17.5864 166.612 21.3875 168.079 26.873C170.308 35.1881 169.87 46.3761 167.202 59.0531C158.331 56.7355 148.622 54.9734 138.257 53.8408C132.087 45.4914 125.647 37.9724 119.137 31.3815C132.46 19.781 144.692 13.8287 153.391 13.8287C156.113 13.8287 158.521 14.4185 160.555 15.5746ZM143.302 118.228C139.673 124.435 135.945 130.189 132.171 135.562C125.473 136.146 118.46 136.463 111.151 136.463C103.837 136.463 96.8225 136.141 90.1195 135.562C86.3473 130.189 82.6168 124.435 78.9875 118.228C75.4524 112.169 72.2519 106.05 69.368 99.9589C72.2519 93.8728 75.4524 87.7487 78.993 81.6897C82.6222 75.4824 86.3582 69.7291 90.1321 64.3504C96.828 63.766 103.848 63.4494 111.157 63.4494C118.466 63.4494 125.48 63.766 132.171 64.3504C135.945 69.7291 139.673 75.477 143.302 81.6843C146.843 87.7433 150.051 93.8674 152.935 99.9535C150.051 106.05 146.843 112.169 143.302 118.228ZM158.72 113.253C161 119.012 162.923 124.658 164.506 130.122C159.004 131.555 153.074 132.778 146.754 133.762C148.849 130.527 150.912 127.236 152.902 123.829C154.957 120.318 156.875 116.788 158.72 113.253ZM111.157 161.001C107.106 156.9 103.003 152.353 98.9013 147.273C102.925 147.461 106.999 147.579 111.157 147.579C115.309 147.579 119.383 147.461 123.401 147.273C119.305 152.353 115.208 156.905 111.157 161.001ZM75.5482 133.762C69.2342 132.778 63.3036 131.555 57.8019 130.122C59.3849 124.658 61.3027 119.017 63.5823 113.258C65.4276 116.788 67.3436 120.323 69.3952 123.835C71.3853 127.236 73.4532 130.527 75.5482 133.762ZM63.5823 86.6596C61.3027 80.9009 59.3849 75.2598 57.8019 69.7961C63.3036 68.3632 69.2342 67.1402 75.5537 66.156C73.4586 69.3908 71.3907 72.6817 69.4006 76.083C67.3436 79.6001 65.4276 83.1298 63.5823 86.6596ZM111.162 38.9222C115.215 43.0182 119.311 47.5647 123.401 52.6449C119.383 52.4568 115.309 52.3392 111.157 52.3392C107.005 52.3392 102.93 52.4568 98.9121 52.6449C103.008 47.5647 107.111 43.0182 111.162 38.9222ZM152.902 76.083C150.912 72.6763 148.849 69.3854 146.754 66.1506C153.074 67.1348 159.004 68.3578 164.506 69.7907C162.923 75.2598 161 80.9009 158.72 86.665C156.875 83.1353 154.957 79.6001 152.902 76.083ZM54.2287 26.8784C55.7014 21.3821 58.2343 17.5756 61.7586 15.5583C63.7921 14.4022 66.2002 13.8125 68.9176 13.8125C77.627 13.8125 89.859 19.7701 103.187 31.3815C96.6724 37.9778 90.2262 45.4914 84.0514 53.8462C73.6866 54.9788 63.9767 56.7464 55.1062 59.064C52.4376 46.3761 51.9998 35.1881 54.2287 26.8784ZM13.8946 99.9589C13.8946 90.3503 26.2948 80.1392 47.1476 72.964C49.6587 81.6626 53.0111 90.7447 57.1343 99.9589C53.0111 109.173 49.6587 118.255 47.1476 126.954C26.2948 119.779 13.8946 109.568 13.8946 99.9589ZM68.923 186.105C66.2002 186.105 63.7867 185.516 61.764 184.365C58.2289 182.348 55.696 178.541 54.2287 173.045C51.9998 164.73 52.4376 153.542 55.1062 140.865C63.9767 143.182 73.6812 144.944 84.046 146.077C90.2208 154.432 96.6669 161.951 103.187 168.549C89.859 180.153 77.627 186.105 68.923 186.105ZM168.074 173.045C166.601 178.53 164.074 182.331 160.55 184.343C158.521 185.499 156.108 186.089 153.385 186.089C144.681 186.089 132.449 180.137 119.126 168.542C125.641 161.945 132.082 154.426 138.251 146.077C148.616 144.944 158.321 143.177 167.191 140.865C169.865 153.542 170.303 164.73 168.074 173.045ZM175.155 126.959C172.644 118.261 169.292 109.179 165.168 99.9589C169.292 90.7393 172.644 81.6572 175.155 72.9586C196.013 80.1338 208.419 90.3503 208.419 99.9589C208.419 109.568 196.013 119.784 175.155 126.959Z" fill="white"/>
<path d="M68.9284 200C63.7595 200 59.0357 198.799 54.8782 196.432C48.0033 192.497 43.2686 185.839 40.8063 176.629C38.183 166.836 38.3277 154.043 41.1953 139.492C14.9729 130.082 0 115.755 0 99.9589C0 84.1629 14.9729 69.8359 41.1953 60.4208C38.3205 45.8749 38.183 33.0767 40.8063 23.2836C43.2686 14.0784 48.0033 7.42057 54.8728 3.49101C68.8777 -4.50019 89.2094 1.30731 111.162 20.0976C133.109 1.3236 153.425 -4.47848 167.435 3.50186C174.299 7.42057 179.034 14.073 181.502 23.2781C184.125 33.0767 183.98 45.8749 181.107 60.4208C207.335 69.8305 222.313 84.1629 222.313 99.9589C222.313 115.755 207.335 130.087 181.107 139.502C183.986 154.048 184.12 166.841 181.496 176.64C179.034 185.845 174.305 192.497 167.441 196.416C153.418 204.407 133.088 198.589 111.157 179.826C95.728 193.036 81.1658 200 68.9284 200ZM68.9175 5.47569C64.7329 5.47569 60.93 6.43094 57.63 8.31612C52.0939 11.484 48.2421 17.0021 46.1796 24.7164C43.6341 34.2038 43.9688 46.9767 47.1313 61.6547L47.6523 64.0772L45.3076 64.8787C20.0422 73.4488 5.55784 86.2362 5.55784 99.9589C5.55784 113.682 20.0422 126.469 45.3022 135.046L47.6469 135.846L47.124 138.269C43.9634 152.947 43.6287 165.719 46.1742 175.207C48.2367 182.927 52.0884 188.445 57.6354 191.613C60.9408 193.487 64.7383 194.442 68.923 194.442H68.9284C80.111 194.442 94.4507 187.205 109.317 174.062L111.157 172.433L112.997 174.062C127.857 187.189 142.202 194.426 153.385 194.426C157.575 194.426 161.378 193.469 164.691 191.585C170.214 188.428 174.066 182.916 176.128 175.201C178.674 165.714 178.339 152.947 175.177 138.269L174.656 135.846L177 135.046C202.266 126.476 216.756 113.682 216.756 99.9589C216.756 86.2308 202.266 73.4416 177 64.8715L174.656 64.0718L175.182 61.6493C178.345 46.9713 178.679 34.1984 176.134 24.711C174.066 16.9912 170.214 11.484 164.678 8.32698C161.373 6.44361 157.575 5.48655 153.391 5.48655C142.213 5.48655 127.875 12.7233 113.002 25.8617L111.162 27.4899L109.322 25.8617C94.4507 12.7179 80.1056 5.47569 68.9175 5.47569ZM68.923 188.884C65.7153 188.884 62.8423 188.179 60.3908 186.778C56.1899 184.378 53.2101 179.998 51.5384 173.761C49.2697 165.274 49.5646 153.697 52.3833 140.293L52.9822 137.442L55.8009 138.174C64.6424 140.481 74.2366 142.214 84.3409 143.316L85.5458 143.448L86.2749 144.422C92.238 152.485 98.5955 159.944 105.154 166.591L107.233 168.697L105.004 170.644C91.5035 182.404 78.6872 188.884 68.923 188.884ZM57.2627 144.271C54.6611 155.61 54.5833 165.264 56.9117 172.321C58.4568 176.996 60.275 180.314 63.1426 181.948C70.3341 186.055 84.3355 180.631 99.1184 168.354C93.3778 162.351 87.8091 155.754 82.5335 148.7C73.6811 147.689 65.1942 146.2 57.2627 144.271ZM153.391 188.868C143.626 188.868 130.81 182.393 117.315 170.639L115.086 168.697L117.165 166.591C123.751 159.912 130.097 152.458 136.028 144.427L136.751 143.448L137.962 143.316C148.071 142.209 157.682 140.481 166.513 138.174L169.337 137.442L169.93 140.293C172.749 153.708 173.044 165.28 170.77 173.761C169.098 179.992 166.124 184.365 161.939 186.755C159.471 188.162 156.598 188.868 153.391 188.868ZM123.195 168.354C137.978 180.62 151.934 186.049 159.182 181.932C162.033 180.309 163.846 176.991 165.391 172.328C167.736 165.264 167.642 155.61 165.045 144.277C157.114 146.205 148.627 147.689 139.764 148.708C134.522 155.733 128.959 162.324 123.195 168.354ZM111.157 164.958L109.183 162.957C104.888 158.611 100.703 153.925 96.7447 149.019L92.855 144.199L99.0352 144.494C106.988 144.872 115.325 144.872 123.273 144.494L129.448 144.199L125.569 149.012C121.623 153.898 117.442 158.589 113.136 162.946L111.157 164.958ZM105.033 150.28C107.028 152.597 109.078 154.848 111.157 157.015C113.236 154.837 115.274 152.592 117.275 150.28C113.225 150.385 109.083 150.385 105.033 150.28ZM111.157 139.242C104.021 139.242 96.8677 138.936 89.8861 138.33L88.5979 138.22L87.8525 137.158C83.8452 131.45 80.0604 125.546 76.5976 119.628C73.1583 113.73 69.8782 107.518 66.8551 101.148L66.2888 99.9589L66.8551 98.7703C69.8782 92.4001 73.1583 86.1819 76.5976 80.2894C80.1002 74.2992 83.7837 68.5676 87.8634 62.7547L88.6088 61.6981L89.8987 61.5878C103.837 60.3756 118.477 60.3756 132.409 61.5878L133.699 61.6981L134.445 62.7601C138.535 68.5966 142.219 74.3317 145.698 80.2894C149.171 86.2362 152.452 92.4508 155.442 98.7757L156.003 99.9589L155.442 101.148C152.452 107.467 149.171 113.687 145.698 119.634C142.219 125.592 138.535 131.327 134.445 137.163L133.699 138.225L132.409 138.336C125.44 138.936 118.292 139.242 111.157 139.242ZM91.6537 132.906C104.488 133.945 117.831 133.945 130.642 132.906C134.349 127.565 137.712 122.29 140.907 116.828C144.082 111.397 147.087 105.728 149.855 99.9589C147.087 94.1894 144.082 88.5212 140.907 83.09C137.717 77.6281 134.349 72.3525 130.642 67.0117C117.825 65.9733 104.459 65.9733 91.6645 67.0117C87.9701 72.3362 84.6014 77.6046 81.3883 83.0973C78.2494 88.476 75.237 94.146 72.44 99.9589C75.237 105.766 78.2439 111.436 81.3883 116.828C84.5616 122.246 88.0136 127.649 91.6537 132.906ZM141.041 137.469L144.415 132.255C146.488 129.054 148.527 125.798 150.501 122.435C152.535 118.955 154.431 115.46 156.253 111.97L159.066 106.59L161.3 112.236C163.551 117.922 165.528 123.685 167.175 129.36L167.969 132.105L165.206 132.823C159.554 134.29 153.495 135.535 147.183 136.519L141.041 137.469ZM158.281 119.967C157.315 121.724 156.32 123.486 155.297 125.242C154.364 126.842 153.407 128.416 152.446 129.972C155.381 129.416 158.237 128.81 161.005 128.143C160.171 125.42 159.26 122.69 158.281 119.967ZM81.2617 137.469L75.1195 136.514C68.8054 135.529 62.7428 134.285 57.1071 132.817L54.3445 132.099L55.1387 129.36C56.7724 123.708 58.7463 117.95 61.0078 112.242L63.2421 106.59L66.0554 111.981C67.8718 115.471 69.7679 118.961 71.8014 122.44C73.7698 125.803 75.8142 129.06 77.8875 132.26L81.2617 137.469ZM61.2972 128.132C64.0544 128.794 66.9111 129.404 69.8402 129.961C68.8777 128.41 67.9279 126.836 66.9944 125.235C65.9668 123.486 64.9826 121.729 64.0146 119.967C63.0377 122.702 62.1313 125.425 61.2972 128.132ZM173.293 130.538L172.481 127.732C170.003 119.127 166.684 110.168 162.634 101.099L162.122 99.9589L162.634 98.8246C166.684 89.7659 170.003 80.8014 172.488 72.1915L173.299 69.3854L176.067 70.3352C198.065 77.8995 211.198 88.9771 211.198 99.9589C211.198 110.946 198.065 122.018 176.061 129.588L173.293 130.538ZM168.208 99.9589C171.709 107.89 174.65 115.742 176.984 123.352C194.484 116.85 205.64 107.807 205.64 99.9589C205.64 92.1106 194.484 83.0683 176.984 76.5661C174.65 84.1864 171.703 92.0329 168.208 99.9589ZM49.0038 130.532L46.2411 129.583C24.2486 122.013 11.1157 110.941 11.1157 99.9589C11.1157 88.9771 24.2486 77.9049 46.2411 70.3352L49.0038 69.3854L49.8143 72.1915C52.311 80.8285 55.6236 89.7931 59.6635 98.8246L60.181 99.9589L59.669 101.093C55.6236 110.125 52.3164 119.089 49.8197 127.726L49.0038 130.532ZM45.3239 76.5661C27.8218 83.0737 16.6735 92.1161 16.6735 99.9589C16.6735 107.802 27.8218 116.844 45.3239 123.352C47.6632 115.71 50.6049 107.861 54.0948 99.9589C50.6049 92.0564 47.6632 84.2081 45.3239 76.5661ZM63.2367 93.3391L61.0023 87.6872C58.7463 81.9792 56.767 76.2205 55.1333 70.5686L54.3391 67.8295L57.1017 67.1112C62.7482 65.644 68.8054 64.3993 75.1195 63.4169L81.2671 62.4598L77.8767 67.6793C75.8033 70.8744 73.7644 74.1309 71.7905 77.4942C69.757 80.9678 67.861 84.4632 66.0445 87.9531L63.2367 93.3391ZM61.2972 71.7862C62.1258 74.4927 63.0377 77.221 64.0146 79.9511C64.9826 78.1944 65.9722 76.4376 66.9944 74.6827C67.9279 73.087 68.8777 71.5148 69.8402 69.9571C66.9111 70.5071 64.0544 71.124 61.2972 71.7862ZM159.066 93.3391L156.253 87.9531C154.431 84.4578 152.535 80.9678 150.501 77.4888C148.533 74.1255 146.488 70.8689 144.415 67.6685L141.041 62.4544L147.178 63.4114C153.495 64.3938 159.565 65.6386 165.201 67.1112L167.964 67.8295L167.169 70.574C165.523 76.244 163.551 82.0063 161.295 87.698L159.066 93.3391ZM152.452 69.9517C153.412 71.5076 154.369 73.0816 155.303 74.6827C156.33 76.4376 157.32 78.1944 158.288 79.9565C159.265 77.2282 160.177 74.4982 161.011 71.7862C158.248 71.1186 155.386 70.5071 152.452 69.9517ZM169.319 62.4833L166.502 61.7488C157.682 59.4421 148.077 57.7143 137.951 56.6071L136.739 56.475L136.017 55.4962C130.07 47.4435 123.723 39.9842 117.154 33.3372L115.075 31.2313L117.304 29.2847C135.25 13.6623 152.001 7.5038 161.917 13.1629C166.113 15.5583 169.085 19.9311 170.759 26.1566C173.027 34.6435 172.733 46.2205 169.914 59.632L169.319 62.4833ZM139.764 51.2103C148.64 52.2288 157.119 53.7178 165.045 55.6464C167.918 45.0481 168.325 35.6657 165.396 27.5894C163.717 22.9778 162.038 19.6145 159.176 17.9808C151.963 13.8685 137.991 19.2925 123.201 31.5642C128.941 37.5726 134.504 44.1689 139.764 51.2103ZM52.9876 62.4833L52.3888 59.632C49.5646 46.2205 49.2697 34.6489 51.5439 26.162C53.2156 19.9203 56.1899 15.5402 60.3854 13.1503C70.3287 7.48209 87.0692 13.6569 105.015 29.2919L107.249 31.2368L105.165 33.3427C98.5847 39.9951 92.238 47.4544 86.2912 55.5017L85.5693 56.4804L84.3572 56.6125C74.2528 57.7197 64.6424 59.4475 55.8063 61.7542L52.9876 62.4833ZM68.9175 16.5914C66.6886 16.5914 64.7437 17.0527 63.1317 17.9754C60.275 19.6037 58.8295 23.0665 56.9117 27.5967C53.9103 34.6815 54.4169 44.3299 57.2627 55.6464C65.1997 53.7178 73.6811 52.2288 82.5444 51.2103C87.8019 44.1689 93.3724 37.578 99.1238 31.5697C87.6246 22.0208 76.7152 16.5914 68.9175 16.5914ZM92.8658 55.7133L96.7501 50.8991C100.696 46.0088 104.882 41.323 109.183 36.9665L111.157 34.9655L113.131 36.9665C117.449 41.3411 121.628 46.0251 125.558 50.8936L129.431 55.7079L123.262 55.4184C115.314 55.0457 106.978 55.0457 99.0352 55.4184L92.8658 55.7133ZM111.157 49.5603C113.214 49.5603 115.253 49.5874 117.275 49.6381C115.293 47.3313 113.241 45.0861 111.162 42.9079C109.083 45.0807 107.039 47.3259 105.043 49.6381C107.066 49.5874 109.1 49.5603 111.157 49.5603Z" fill="#23ACFF"/>
</svg>
